HIERARCHY
ROOT Hips
{
	OFFSET 55.310501 45.591206 43.872097
	CHANNELS 6 Xposition Yposition Zposition Zrotation Xrotation Yrotation
	JOINT Chest
	{
		OFFSET -0.153500 1.163101 7.852402
		CHANNELS 6 Xposition Yposition Zposition Zrotation Xrotation Yrotation
		JOINT Chest2
		{
			OFFSET 0.000000 0.000000 3.343300
			CHANNELS 6 Xposition Yposition Zposition Zrotation Xrotation Yrotation
			JOINT Neck
			{
				OFFSET 0.000000 0.000000 7.785500
				CHANNELS 6 Xposition Yposition Zposition Zrotation Xrotation Yrotation
				JOINT Head
				{
					OFFSET 0.000000 0.000000 2.173901
					CHANNELS 6 Xposition Yposition Zposition Zrotation Xrotation Yrotation
					End Site
					{
						OFFSET 0.000000 0.000000 10.528198
					}
				}
			}
			JOINT LeftCollar
			{
				OFFSET 2.676300 -1.652401 4.938301
				CHANNELS 6 Xposition Yposition Zposition Zrotation Xrotation Yrotation
				JOINT LeftShoulder
				{
					OFFSET 4.299000 0.000000 0.000000
					CHANNELS 6 Xposition Yposition Zposition Zrotation Xrotation Yrotation
					JOINT LeftElbow
					{
						OFFSET 0.000000 0.000000 -10.245102
						CHANNELS 6 Xposition Yposition Zposition Zrotation Xrotation Yrotation
						JOINT LeftWrist
						{
							OFFSET 0.000000 0.000000 -12.703300
							CHANNELS 6 Xposition Yposition Zposition Zrotation Xrotation Yrotation
							End Site
							{
								OFFSET 0.000000 0.000000 -2.173901
							}
						}
					}
				}
			}
			JOINT RightCollar
			{
				OFFSET -2.534599 -1.686401 5.195000
				CHANNELS 6 Xposition Yposition Zposition Zrotation Xrotation Yrotation
				JOINT RightShoulder
				{
					OFFSET -4.144100 0.000000 0.000000
					CHANNELS 6 Xposition Yposition Zposition Zrotation Xrotation Yrotation
					JOINT RightElbow
					{
						OFFSET 0.000000 0.000000 -10.116501
						CHANNELS 6 Xposition Yposition Zposition Zrotation Xrotation Yrotation
						JOINT RightWrist
						{
							OFFSET 0.000000 0.000000 -12.937801
							CHANNELS 6 Xposition Yposition Zposition Zrotation Xrotation Yrotation
							End Site
							{
								OFFSET 0.000000 0.000000 -2.173901
							}
						}
					}
				}
			}
		}
	}
	JOINT LeftHip
	{
		OFFSET 2.175598 0.064499 -2.662899
		CHANNELS 6 Xposition Yposition Zposition Zrotation Xrotation Yrotation
		JOINT LeftKnee
		{
			OFFSET 0.000000 -0.000004 -18.585800
			CHANNELS 6 Xposition Yposition Zposition Zrotation Xrotation Yrotation
			JOINT LeftAnkle
			{
				OFFSET 0.000000 0.000000 -18.979500
				CHANNELS 6 Xposition Yposition Zposition Zrotation Xrotation Yrotation
				End Site
				{
					OFFSET 0.000000 -9.264000 0.000000
				}
			}
		}
	}
	JOINT RightHip
	{
		OFFSET -2.092400 -0.058102 -2.581200
		CHANNELS 6 Xposition Yposition Zposition Zrotation Xrotation Yrotation
		JOINT RightKnee
		{
			OFFSET 0.000000 -0.000004 -18.665001
			CHANNELS 6 Xposition Yposition Zposition Zrotation Xrotation Yrotation
			JOINT RightAnkle
			{
				OFFSET 0.000000 0.000000 -18.566601
				CHANNELS 6 Xposition Yposition Zposition Zrotation Xrotation Yrotation
				End Site
				{
					OFFSET 0.000000 -8.497601 0.000000
				}
			}
		}
	}
}
MOTION
Frames: 4
Frame Time: 0.041667
34.953602 63.000999 43.175591 -3.685305 -4.206124 2.854809 -0.153500 1.163108 7.852405 4.096183 16.436369 1.339362 0.000009 -0.000011 3.343306 -18.117232 -7.119458 -2.702665 -0.000005 0.000002 7.785498 38.905341 9.359934 -23.149458 0.000003 0.000004 2.173906 3.966547 4.655714 2.746180 2.676296 -1.652400 4.938302 -6.761637 3.034531 15.424333 4.299003 0.000008 -0.000006 -9.027843 15.519141 -57.568611 -0.000005 -0.000002 -10.245101 406.090427 -22.976118 369.038700 0.000005 0.000010 -12.703312 -66.100850 0.953769 27.032629 -2.534596 -1.686400 5.194996 -2.364134 7.389365 4.107368 -4.144108 0.000008 0.000003 59.350942 -14.478951 87.875807 0.000000 0.000006 -10.116491 -77.321013 -29.611363 -105.012622 -0.000003 0.000009 -12.937811 86.336699 -10.607071 19.649980 2.175592 0.064496 -2.662897 31.440761 -26.370326 -24.290255 0.000005 -0.000001 -18.585808 194.674762 -196.957739 -190.293797 -0.000017 0.000008 -18.979504 -76.862926 57.036430 24.241999 -2.092392 -0.058103 -2.581197 -17.051326 -11.738267 -4.937968 0.000001 -0.000002 -18.665009 -171.123232 140.170153 175.719403 0.000008 0.000010 -18.566605 5.027158 12.309017 12.456236
34.986305 62.968204 43.206593 -3.876531 -4.200185 2.803364 -0.153503 1.163104 7.852409 4.278113 16.286721 1.332202 0.000001 0.000006 3.343300 -18.343076 -7.086453 -2.721119 -0.000001 0.000000 7.785501 38.938017 9.233411 -23.293383 -0.000001 -0.000002 2.173911 4.005400 4.612305 2.828455 2.676297 -1.652403 4.938299 -7.045283 3.313946 15.265925 4.299001 0.000001 -0.000010 -9.076952 15.398467 -57.491020 0.000001 -0.000006 -10.245104 406.352160 -22.349318 368.831363 -0.000001 0.000000 -12.703296 -66.008403 0.925060 27.177386 -2.534597 -1.686408 5.194997 -2.505072 7.300437 3.994265 -4.144108 -0.000005 0.000002 58.867269 -14.235137 88.315357 0.000002 0.000004 -10.116492 -77.909673 -29.580173 -105.713843 -0.000004 0.000006 -12.937806 86.074631 -10.779874 19.681375 2.175591 0.064500 -2.662888 31.563882 -26.183979 -24.291388 -0.000008 0.000002 -18.585806 194.711659 -196.764868 -190.117974 -0.000008 0.000010 -18.979507 -77.028674 57.473617 24.750811 -2.092398 -0.058103 -2.581191 -16.387782 -11.434495 -4.624703 0.000001 0.000003 -18.665010 -171.651984 140.755623 175.613849 0.000005 -0.000000 -18.566605 5.135688 12.370776 12.558882
35.016499 62.937305 43.236893 -4.086301 -4.172058 2.920215 -0.153496 1.163110 7.852402 4.523537 16.117194 1.174454 -0.000002 0.000012 3.343298 -18.582612 -7.074551 -2.740228 -0.000002 0.000004 7.785499 38.932147 9.111589 -23.402713 -0.000003 -0.000001 2.173903 4.110914 4.563637 2.863058 2.676291 -1.652396 4.938302 -7.224313 3.559376 15.229496 4.299002 0.000002 0.000003 -9.098413 15.325263 -57.585359 -0.000002 -0.000011 -10.245103 406.542504 -21.730908 368.636429 0.000005 0.000004 -12.703299 -65.912541 0.893343 27.339581 -2.534601 -1.686399 5.195004 -2.613849 7.257286 3.790241 -4.144103 -0.000002 -0.000002 58.382463 -13.950472 88.857544 0.000006 0.000002 -10.116502 -78.449804 -29.482699 -106.379944 -0.000002 0.000005 -12.937800 85.860450 -10.928036 19.759109 2.175596 0.064496 -2.662893 28.652862 -24.357679 -25.664943 -0.000008 -0.000004 -18.585812 195.608927 -196.379591 -189.374590 -0.000010 -0.000005 -18.979511 -74.658004 58.066341 24.012442 -2.092398 -0.058104 -2.581197 -15.894666 -11.107087 -4.490026 0.000004 0.000003 -18.665007 -171.324859 141.252246 175.093183 0.000004 -0.000007 -18.566603 4.779859 12.242827 12.633878
35.045502 62.908199 43.266293 -4.319001 -4.130137 3.042430 -0.153494 1.163108 7.852409 4.792315 15.940601 1.008546 -0.000002 -0.000014 3.343303 -18.850142 -7.047727 -2.769041 -0.000001 0.000002 7.785502 38.998164 9.027280 -23.512370 -0.000000 0.000001 2.173905 4.202164 4.458637 2.912988 2.676297 -1.652400 4.938306 -7.247983 3.628111 15.159893 4.299002 -0.000003 -0.000007 -9.201718 15.441697 -57.620726 -0.000001 0.000000 -10.245104 406.749732 -21.161017 368.457943 0.000002 0.000010 -12.703298 -65.793860 0.869360 27.417107 -2.534597 -1.686398 5.195001 -2.753785 7.183931 3.739142 -4.144104 -0.000005 0.000000 57.971251 -13.776927 89.336190 0.000000 0.000002 -10.116504 -78.950887 -29.371398 -106.968474 0.000000 0.000008 -12.937809 85.681991 -11.114474 19.873176 2.175594 0.064507 -2.662891 26.372286 -22.843730 -26.702397 -0.000005 -0.000001 -18.585802 196.253191 -196.070183 -188.766430 -0.000005 0.000008 -18.979506 -72.622505 58.590387 23.342848 -2.092396 -0.058100 -2.581195 -15.494352 -10.805161 -4.393912 0.000004 0.000002 -18.665007 -170.343675 141.668847 174.282700 0.000006 0.000001 -18.566603 4.051197 11.973486 12.679691
